<?xml version="1.0" standalone="no"?>
<!DOCTYPE svg PUBLIC "-//W3C//DTD SVG 20010904//EN"
 "http://www.w3.org/TR/2001/REC-SVG-20010904/DTD/svg10.dtd">
<svg version="1.0" xmlns="http://www.w3.org/2000/svg"
 width="637.000000pt" height="534.000000pt" viewBox="0 0 637.000000 534.000000"
 preserveAspectRatio="xMidYMid meet">

<g transform="translate(0.000000,534.000000) scale(0.100000,-0.100000)"
fill="#000000" stroke="none">
<path d="M3060 5193 c-128 -75 -486 -249 -640 -311 -501 -201 -919 -303 -1303
-319 l-158 -6 4 -846 c3 -818 4 -851 26 -985 28 -175 87 -407 141 -556 67
-185 209 -468 302 -602 l18 -26 80 26 c44 14 80 30 80 34 0 4 -24 45 -54 90
-199 305 -335 668 -398 1060 -20 126 -22 175 -25 884 l-4 751 123 12 c551 55
1146 250 1767 576 l133 71 252 -126 c411 -205 768 -341 1126 -429 211 -51 524
-101 637 -101 12 0 14 -100 10 -762 -4 -825 -3 -817 -63 -1083 -59 -264 -188
-576 -343 -828 -40 -65 -71 -120 -69 -121 1 -2 38 -15 81 -28 l78 -25 28 41
c208 305 360 704 433 1131 21 126 22 159 25 986 l4 856 -153 6 c-585 24 -1312
265 -2003 662 l-40 23 -95 -55z"/>
<path d="M3075 4948 c-38 -22 -138 -72 -221 -113 -523 -254 -1039 -419 -1474
-470 -74 -9 -150 -19 -168 -21 l-32 -5 0 -624 0 -625 990 0 990 0 0 -608 0
-609 208 -6 c386 -11 838 -80 1204 -183 48 -13 91 -24 97 -24 12 0 124 185
185 307 159 320 250 660 272 1021 l7 112 -986 0 -987 0 0 945 c0 520 -3 945
-7 944 -5 0 -39 -19 -78 -41z m-992 -893 c38 -8 93 -25 123 -39 l54 -25 54 25
c65 30 162 51 274 60 l82 7 0 -255 0 -255 -79 -6 c-105 -8 -204 -32 -271 -65
l-55 -27 -75 32 c-77 33 -219 63 -296 63 l-44 0 0 248 c0 137 3 252 8 256 9
10 137 -1 225 -19z m-175 -528 l87 -3 -92 -2 -93 -2 2 263 3 262 2 -257 3
-257 88 -4z m802 253 l0 -260 -92 2 -93 2 88 3 87 4 0 254 c0 140 2 255 5 255
3 0 5 -117 5 -260z m-667 -267 c-7 -2 -21 -2 -30 0 -10 3 -4 5 12 5 17 0 24
-2 18 -5z m470 0 c-7 -2 -21 -2 -30 0 -10 3 -4 5 12 5 17 0 24 -2 18 -5z
m-315 -44 c61 -27 65 -28 95 -13 41 22 136 54 156 54 9 -1 -15 -11 -54 -24
-38 -12 -84 -30 -102 -39 -30 -16 -33 -16 -89 10 -31 14 -78 32 -103 39 -45
14 -45 14 -6 8 21 -3 68 -19 103 -35z m1982 -677 c5 -20 10 -51 10 -69 0 -51
-38 -140 -86 -199 -35 -43 -44 -62 -44 -92 l0 -39 64 1 c69 1 100 -14 139 -66
61 -81 -23 -228 -140 -247 l-38 -6 -3 -65 c-3 -73 -20 -100 -63 -100 -31 0
-59 31 -59 65 0 12 12 32 26 46 25 24 26 24 40 4 13 -18 13 -22 -6 -37 -24
-19 -25 -31 -5 -48 12 -10 18 -10 30 0 12 10 15 29 13 74 l-3 60 -38 8 c-47
10 -110 53 -133 92 -23 39 -20 108 8 164 12 26 50 73 83 107 l62 60 6 90 c3
50 13 111 22 137 17 48 78 114 95 103 5 -3 14 -22 20 -43z"/>
<path d="M1990 4004 c103 -13 172 -32 218 -60 12 -8 22 -11 22 -6 0 29 -201
83 -299 81 -31 -1 -12 -6 59 -15z"/>
<path d="M2455 4004 c-71 -14 -165 -51 -165 -65 0 -5 21 3 48 16 59 29 80 35
200 50 80 10 88 12 42 13 -30 0 -86 -6 -125 -14z"/>
<path d="M1950 3953 c88 -6 172 -24 226 -48 62 -27 73 -25 16 4 -60 30 -154
51 -223 49 -51 -1 -55 -2 -19 -5z"/>
<path d="M2415 3941 c-65 -19 -130 -49 -122 -58 3 -2 16 2 29 10 41 27 123 48
214 56 l89 8 -75 1 c-44 0 -100 -7 -135 -17z"/>
<path d="M1960 3899 c130 -22 166 -30 219 -54 48 -21 53 -22 33 -5 -38 32
-202 72 -282 69 -14 -1 0 -5 30 -10z"/>
<path d="M2495 3900 c-78 -11 -160 -38 -186 -60 -21 -17 -16 -17 32 5 53 24
89 32 219 54 39 6 45 9 20 9 -19 0 -58 -4 -85 -8z"/>
<path d="M1995 3829 c95 -7 185 -29 213 -52 7 -5 15 -7 18 -4 10 9 -51 36
-118 52 -35 8 -97 14 -138 13 l-75 -1 100 -8z"/>
<path d="M2407 3824 c-60 -14 -122 -42 -114 -50 3 -3 23 4 45 15 41 21 132 38
232 44 40 2 32 4 -25 4 -44 1 -106 -5 -138 -13z"/>
<path d="M1925 3780 c-22 -6 -9 -8 46 -9 94 -1 167 -14 219 -40 22 -10 40 -15
40 -11 0 13 -106 50 -159 56 -98 11 -117 11 -146 4z"/>
<path d="M2480 3779 c-77 -7 -190 -43 -190 -60 0 -5 17 -1 38 10 52 26 130 41
219 41 42 0 74 2 72 4 -11 9 -72 12 -139 5z"/>
<path d="M1985 3720 c110 -8 148 -17 198 -42 22 -11 41 -17 45 -14 8 9 -81 45
-139 56 -28 6 -84 9 -123 8 l-71 -1 90 -7z"/>
<path d="M2423 3719 c-47 -9 -139 -47 -132 -54 3 -2 33 7 68 21 44 18 93 28
164 33 l102 8 -80 0 c-44 1 -99 -3 -122 -8z"/>
<path d="M1910 3669 c0 -5 4 -8 9 -5 20 12 192 -13 251 -37 36 -15 56 -19 50
-12 -31 37 -310 86 -310 54z"/>
<path d="M2471 3669 c-70 -9 -157 -37 -172 -55 -5 -7 18 -1 51 13 63 25 225
48 256 36 12 -4 15 -3 10 5 -8 13 -49 14 -145 1z"/>
<path d="M1985 3609 c96 -10 186 -32 223 -55 12 -8 22 -10 22 -5 0 28 -175 72
-280 70 -45 -1 -39 -3 35 -10z"/>
<path d="M2442 3609 c-62 -10 -152 -47 -152 -61 0 -6 11 -3 24 5 37 25 124 46
221 56 85 8 86 8 25 8 -36 1 -89 -3 -118 -8z"/>
<path d="M4108 2726 c-19 -39 -42 -148 -36 -167 3 -8 17 8 33 36 20 34 30 66
33 107 5 65 -6 75 -30 24z"/>
<path d="M3980 2398 c-76 -76 -98 -154 -60 -216 20 -33 86 -71 124 -72 16 0
18 5 12 38 -3 20 -6 45 -6 54 0 12 -8 16 -31 16 -33 -1 -59 22 -59 50 0 22 39
81 61 92 13 8 19 21 19 45 0 19 -4 35 -9 35 -5 0 -28 -19 -51 -42z"/>
<path d="M4085 2330 c-16 -17 -17 -32 -12 -116 4 -54 9 -99 12 -102 3 -3 24 1
47 8 52 15 105 69 113 114 8 38 -14 89 -44 106 -33 17 -96 12 -116 -10z"/>
<path d="M4030 4140 c-47 -21 -173 -77 -280 -124 -107 -47 -194 -88 -193 -92
2 -8 532 -256 548 -257 13 0 454 190 483 210 13 8 25 13 27 11 2 -2 7 -69 11
-149 5 -106 4 -148 -5 -153 -21 -13 -11 -26 19 -26 27 0 30 2 20 19 -5 11 -10
85 -10 170 0 129 2 151 17 159 15 9 14 10 -3 20 -29 15 -544 252 -547 251 -1
0 -40 -18 -87 -39z"/>
<path d="M3790 3635 l0 -155 28 -7 c36 -10 486 -10 535 0 l37 8 0 145 c0 139
-1 145 -19 139 -11 -3 -74 -30 -141 -60 l-121 -54 -57 26 c-31 14 -99 45 -151
69 -52 24 -98 44 -102 44 -5 0 -9 -70 -9 -155z"/>
<path d="M2234 2941 c-18 -11 -45 -36 -60 -57 -26 -34 -29 -47 -34 -138 -5
-103 -10 -117 -62 -194 -64 -93 -56 -142 35 -213 l49 -39 -79 0 c-78 0 -78 0
-109 -38 -44 -53 -47 -61 -34 -77 10 -13 8 -15 -18 -15 -16 0 -35 -7 -42 -15
-11 -14 -7 -22 26 -56 24 -25 55 -45 80 -51 25 -7 40 -16 37 -23 -2 -7 11 -25
29 -41 l33 -29 -3 -92 c-3 -88 -2 -93 18 -93 18 0 20 6 20 60 l0 60 45 0 45 0
0 -44 c0 -25 3 -47 8 -49 4 -2 51 2 105 11 l98 15 -3 66 c-3 61 -1 68 25 93
15 15 27 34 27 42 0 8 14 16 33 20 46 9 119 72 115 100 -2 16 -12 22 -43 27
-22 3 -34 7 -27 8 21 2 13 32 -20 77 -33 43 -33 43 -96 44 l-64 0 43 33 c68
52 84 80 84 145 -1 48 -7 67 -38 118 -35 58 -67 96 -67 79 0 -4 7 -31 16 -60
20 -72 16 -149 -10 -153 -30 -6 -36 10 -26 72 13 78 -1 135 -50 209 -52 77
-66 125 -51 168 19 56 14 60 -35 30z m1 -414 c0 -44 6 -60 33 -97 30 -42 39
-80 26 -114 -4 -12 -20 -16 -55 -16 -45 0 -51 3 -61 28 -14 35 -22 124 -14
156 5 19 60 96 70 96 0 0 1 -24 1 -53z"/>
<path d="M2088 2797 c4 -50 -14 -96 -58 -148 -37 -43 -48 -100 -30 -154 l12
-37 19 41 c10 23 33 62 51 87 37 52 49 136 28 209 -16 57 -26 58 -22 2z"/>
<path d="M3005 1611 c-45 -3 -71 -9 -59 -12 19 -6 21 -16 28 -110 6 -92 4
-105 -11 -116 -14 -11 0 -13 79 -13 l96 0 11 32 11 32 -24 -23 c-19 -18 -33
-22 -72 -19 l-49 3 0 50 0 50 37 3 c28 2 40 -2 52 -20 16 -22 16 -22 16 21 0
42 -1 43 -18 28 -10 -10 -35 -17 -55 -17 l-37 0 0 50 0 50 55 0 c41 0 57 -4
65 -17 9 -16 10 -15 8 7 -3 29 -10 30 -133 21z"/>
<path d="M3284 1599 c16 -10 17 -20 11 -113 -5 -75 -11 -104 -23 -113 -13 -11
-8 -13 34 -13 30 0 44 4 36 9 -16 10 -13 103 4 108 6 2 30 -26 54 -62 36 -55
47 -65 71 -65 l29 0 -29 28 c-40 38 -77 102 -59 102 8 0 25 11 37 24 32 34 22
72 -24 92 -42 17 -171 20 -141 3z m124 -21 c17 -17 15 -54 -4 -72 -8 -9 -29
-16 -46 -16 -30 0 -30 1 -24 38 3 20 6 43 6 50 0 16 52 16 68 0z"/>
<path d="M2768 1593 c6 -2 12 -12 12 -21 0 -19 -50 -175 -55 -170 -1 2 -24 39
-50 83 -44 75 -46 80 -28 93 16 13 15 14 -16 8 -18 -3 -45 -6 -60 -7 -24 0
-25 -1 -5 -9 12 -5 48 -55 85 -119 35 -61 66 -110 69 -111 3 0 23 52 43 115
21 63 45 122 53 130 14 13 11 15 -23 14 -21 0 -32 -3 -25 -6z"/>
<path d="M3647 1563 c-9 -11 -17 -31 -17 -45 0 -25 7 -33 93 -105 33 -28 34
-48 3 -69 -21 -13 -29 -14 -53 -2 -15 7 -32 23 -38 36 -13 30 -25 28 -25 -6 0
-23 6 -29 40 -40 81 -25 130 -5 130 52 0 34 -22 60 -87 105 -40 27 -43 57 -8
73 34 15 74 -6 82 -44 7 -36 23 -26 23 15 0 24 -5 33 -17 35 -10 1 -38 5 -63
8 -37 5 -49 2 -63 -13z"/>
<path d="M2387 1553 c-23 -4 -26 -7 -16 -19 20 -24 49 -206 36 -223 -10 -12
-7 -13 22 -8 18 4 41 7 50 8 12 0 11 2 -4 8 -17 7 -24 27 -38 112 -17 98 -17
104 -1 116 17 12 17 13 -2 12 -10 -1 -32 -4 -47 -6z"/>
<path d="M3947 1529 c9 -11 8 -36 -7 -113 -11 -54 -24 -104 -30 -111 -8 -9 -3
-14 21 -19 43 -8 57 -7 40 3 -22 14 14 207 43 227 20 14 20 14 -4 14 -14 0
-36 3 -50 7 -21 5 -23 4 -13 -8z"/>
<path d="M2180 1510 c-16 -5 -19 -8 -8 -9 11 -1 20 -14 27 -38 20 -83 30 -127
28 -129 -1 -1 -45 29 -97 67 -94 68 -115 76 -155 59 -20 -8 -19 -9 1 -9 30 -1
39 -16 63 -104 24 -88 26 -117 9 -117 -6 0 -9 -2 -6 -5 3 -4 18 -3 32 1 19 4
24 10 17 18 -10 12 -54 166 -49 171 2 2 49 -31 106 -72 57 -41 105 -74 107
-72 2 2 -8 53 -21 114 -23 103 -23 111 -7 122 16 12 15 13 -3 12 -10 -1 -30
-5 -44 -9z"/>
<path d="M4136 1478 c-9 -36 -7 -43 7 -24 9 12 23 17 47 14 40 -4 40 0 8 -126
-17 -64 -26 -86 -42 -92 -18 -6 -16 -9 19 -19 52 -14 60 -14 47 2 -8 9 -4 39
14 107 15 52 29 99 33 103 13 13 61 -11 70 -35 l8 -22 6 25 c4 13 3 27 -1 30
-4 3 -45 16 -92 28 -47 12 -92 24 -101 27 -11 3 -19 -3 -23 -18z"/>
<path d="M1820 1416 c-30 -11 -32 -13 -13 -18 16 -4 27 -22 42 -73 27 -86 27
-119 -1 -145 -27 -25 -79 -26 -100 -2 -8 9 -27 51 -41 92 -24 68 -25 75 -10
92 15 17 14 17 -33 2 -49 -17 -85 -38 -47 -28 18 5 25 -5 53 -78 17 -45 39
-91 47 -100 23 -26 92 -23 134 5 44 29 47 58 18 158 -19 64 -20 81 -9 93 15
19 7 19 -40 2z"/>
<path d="M4473 1389 c9 -13 23 -52 33 -85 19 -72 13 -126 -17 -148 -20 -13
-20 -14 5 -20 13 -3 31 -9 40 -12 12 -5 15 -2 10 11 -19 48 38 119 135 170
l35 17 -33 14 c-42 18 -46 17 -32 0 10 -11 3 -21 -32 -50 -24 -20 -47 -36 -50
-36 -6 0 -37 94 -37 112 0 4 7 8 16 8 24 0 7 17 -23 23 -16 3 -36 9 -47 13
-17 7 -18 6 -3 -17z"/>
<path d="M2037 1010 c-38 -10 -71 -21 -74 -24 -17 -17 45 -78 202 -198 52 -39
875 -635 961 -695 l31 -22 498 360 c542 392 695 511 695 540 0 18 -6 21 -122
50 l-47 11 -63 -50 c-168 -133 -963 -700 -973 -693 -5 5 -208 151 -450 326
-242 175 -466 340 -498 366 -32 27 -66 49 -75 48 -10 0 -48 -9 -85 -19z"/>
<path d="M2568 965 c-15 -33 0 -79 27 -83 18 -2 19 -2 3 8 -21 13 -24 70 -6
88 9 9 9 12 0 12 -7 0 -18 -11 -24 -25z"/>
<path d="M2635 980 c3 -5 8 -10 11 -10 2 0 4 5 4 10 0 6 -5 10 -11 10 -5 0 -7
-4 -4 -10z"/>
<path d="M2752 978 c-24 -24 -9 -98 20 -98 4 0 0 13 -9 29 -16 27 -16 30 0 55
18 27 11 36 -11 14z"/>
<path d="M2808 978 c7 -7 12 -26 12 -43 0 -17 -5 -36 -12 -43 -7 -7 -8 -12 -2
-12 19 0 34 24 34 55 0 31 -15 55 -34 55 -6 0 -5 -5 2 -12z"/>
<path d="M2935 935 l0 -55 38 0 c20 0 37 4 37 8 0 5 -14 6 -31 4 l-31 -5 3 52
c3 30 0 51 -6 51 -5 0 -10 -25 -10 -55z"/>
<path d="M3105 935 l0 -55 38 0 c20 0 37 4 37 8 0 5 -14 6 -31 4 l-31 -5 3 52
c3 30 0 51 -6 51 -5 0 -10 -25 -10 -55z"/>
<path d="M3270 935 l0 -55 34 0 c19 0 37 4 40 8 3 5 -8 6 -25 4 -29 -4 -29 -4
-29 47 0 28 -4 51 -10 51 -5 0 -10 -25 -10 -55z"/>
<path d="M3446 974 c-29 -28 -11 -94 25 -94 6 0 3 7 -5 16 -19 18 -21 65 -4
82 7 7 9 12 6 12 -4 0 -14 -7 -22 -16z"/>
<path d="M3500 986 c0 -2 7 -6 15 -10 8 -3 15 -1 15 4 0 6 -7 10 -15 10 -8 0
-15 -2 -15 -4z"/>
<path d="M3628 935 l-3 -55 40 1 c30 2 33 3 13 6 -26 4 -28 8 -28 54 0 67 -17
62 -22 -6z"/>
<path d="M3675 940 c-3 -5 -1 -10 4 -10 6 0 11 5 11 10 0 6 -2 10 -4 10 -3 0
-8 -4 -11 -10z"/>
<path d="M3508 910 c-3 -19 -1 -29 6 -27 14 4 21 57 8 57 -5 0 -12 -14 -14
-30z"/>
<path d="M3012 740 c0 -19 2 -27 5 -17 2 9 2 25 0 35 -3 9 -5 1 -5 -18z"/>
<path d="M3052 735 c0 -16 2 -22 5 -12 2 9 2 23 0 30 -3 6 -5 -1 -5 -18z"/>
<path d="M3088 736 c-3 -14 -2 -26 2 -26 12 0 19 26 10 39 -5 9 -9 4 -12 -13z"/>
<path d="M3323 744 c-3 -8 -2 -19 3 -24 5 -5 9 1 9 16 0 28 -3 30 -12 8z"/>
<path d="M3352 735 c0 -16 2 -22 5 -12 2 9 2 23 0 30 -3 6 -5 -1 -5 -18z"/>
<path d="M2961 733 c7 -10 15 -20 16 -22 2 -2 3 3 3 11 0 9 -7 19 -16 22 -15
6 -15 4 -3 -11z"/>
</g>
</svg>
